<?xml version="1.0" encoding="UTF-8" standalone="no"?>
<!-- Created with Inkscape (http://www.inkscape.org/) -->

<svg
   xmlns:dc="http://purl.org/dc/elements/1.1/"
   xmlns:cc="http://creativecommons.org/ns#"
   xmlns:rdf="http://www.w3.org/1999/02/22-rdf-syntax-ns#"
   xmlns:svg="http://www.w3.org/2000/svg"
   xmlns="http://www.w3.org/2000/svg"
   xmlns:sodipodi="http://sodipodi.sourceforge.net/DTD/sodipodi-0.dtd"
   xmlns:inkscape="http://www.inkscape.org/namespaces/inkscape"
   width="210mm"
   height="150mm"
   viewBox="0 0 744.09449 531.49606"
   id="svg5976"
   version="1.1"
   inkscape:version="0.91 r13725"
   sodipodi:docname="bear_converted.svg">
  <defs
     id="defs5978" />
  <sodipodi:namedview
     id="base"
     pagecolor="#ffffff"
     bordercolor="#666666"
     borderopacity="1.0"
     inkscape:pageopacity="0.0"
     inkscape:pageshadow="2"
     inkscape:zoom="0.49497475"
     inkscape:cx="398.925"
     inkscape:cy="787.99347"
     inkscape:document-units="px"
     inkscape:current-layer="layer1"
     showgrid="false" />
  <metadata
     id="metadata5981">
    <rdf:RDF>
      <cc:Work
         rdf:about="">
        <dc:format>image/svg+xml</dc:format>
        <dc:type
           rdf:resource="http://purl.org/dc/dcmitype/StillImage" />
        <dc:title></dc:title>
      </cc:Work>
    </rdf:RDF>
  </metadata>
  <g
     inkscape:label="Layer 1"
     inkscape:groupmode="layer"
     id="layer1"
     transform="translate(0,-520.86614)">
    <path
       style="fill:#000000;fill-opacity:1;stroke:#000000;stroke-width:0.99999994;stroke-opacity:1"
       d="m 324.55024,1022.5781 c -2.74156,-0.9468 -6.52007,-2.9639 -8.3966,-4.4826 -2.88849,-2.3374 -3.83047,-3.472 -5.63373,-6.7854 -0.10309,-0.1893 -1.55902,0.1339 -3.23545,0.7183 -1.80189,0.628 -3.39389,0.7167 -3.89373,0.2169 -2.1161,-2.1157 6.22838,-11.6875 13.00623,-14.91917 1.7894,-0.85314 3.25337,-1.89628 3.25337,-2.31809 0,-0.95376 0.40186,-1.00337 -5.17764,0.63869 -4.32813,1.27376 -4.55542,1.26443 -2.82416,-0.11619 3.82587,-3.05077 15.84606,-8.18464 20.12585,-8.59587 2.42833,-0.23327 5.97608,0.007 7.8838,0.53344 5.2875,1.45975 10.79427,-1.6411 13.88142,-7.81644 2.12641,-4.25346 2.33684,-5.70924 2.18771,-15.13136 -0.1128,-7.13452 -0.62854,-11.4425 -1.6335,-13.64812 l -1.46856,-3.22299 0.56399,5.17687 c 0.83694,7.68158 -0.37519,5.26566 -1.68177,-3.35212 -0.8358,-5.51248 -1.29315,-6.85507 -1.7439,-5.11913 -0.57998,2.23371 -0.6479,2.1859 -1.33841,-0.94123 -1.02591,-4.64563 -11.62249,-28.62132 -14.48678,-32.77757 -1.65822,-2.40613 -2.51202,-5.11422 -2.80233,-8.8878 -0.33356,-4.33584 -0.72315,-5.37685 -1.93761,-5.17687 -1.05993,0.17451 -2.91456,-2.3852 -6.12656,-8.45619 -4.64158,-8.77273 -6.92148,-11.10213 -5.77991,-5.90509 0.58984,2.68489 0.4566,2.82684 -3.20224,3.41185 -2.09974,0.33568 -4.30124,1.19282 -4.89212,1.90479 -0.59099,0.71196 -2.01904,1.29441 -3.17348,1.29441 -1.96756,0 -3.9121,1.15252 -10.73485,6.36284 l -2.78544,2.12714 -0.62238,-2.83309 c -0.89199,-4.06047 -2.35558,-3.49496 -2.35558,0.91015 0,4.67795 -2.189,6.30961 -10.19381,7.59852 -3.14236,0.50601 -7.7286,1.7837 -10.19172,2.83934 l -4.4783,1.91932 -1.54418,-2.0468 c -1.32653,-1.75841 -1.6259,-1.83394 -2.12393,-0.53615 -0.36389,0.94804 -1.16394,1.28657 -2.14802,0.90903 -1.02694,-0.39397 -2.16918,0.18004 -3.30954,1.66307 l -1.74142,2.26472 -0.0221,-3.01275 c -0.011,-1.65698 0.4441,-5.18056 1.0124,-7.83022 1.3492,-6.28995 0.53441,-6.95574 -1.48695,-1.21511 -3.5824,10.174 -3.88102,10.55788 -10.52984,13.54059 -3.44707,1.54644 -6.78938,3.52524 -7.4272,4.39745 -1.08688,1.48619 -1.48183,1.48429 -6.28419,-0.0294 -2.81845,-0.88825 -6.5242,-1.61503 -8.23504,-1.61503 -5.56054,0 -16.27437,3.78383 -21.23271,7.49882 -5.26395,3.94401 -10.92592,6.98727 -14.66993,7.88499 -1.35551,0.32507 -4.03562,2.50792 -5.95574,4.85082 -1.92015,2.34296 -3.85339,4.03607 -4.29615,3.76251 -0.44267,-0.27356 -1.43745,0.40564 -2.21059,1.5093 -0.77314,1.1036 -2.69358,2.78971 -4.26758,3.74679 -1.57409,0.95705 -3.93245,3.85242 -5.24084,6.43399 -1.959,3.8653 -3.00334,4.86724 -5.91675,5.67618 -1.94581,0.54027 -4.02966,0.9847 -4.63087,0.98755 -0.60114,0 -2.15179,1.26331 -3.44572,2.80087 -3.68286,4.37622 -4.87511,4.05987 -4.87511,-1.29351 0,-2.78058 -0.45511,-4.77236 -1.14466,-5.00925 -0.62952,-0.21626 -3.28371,1.60727 -5.89814,4.05242 -2.6145,2.44515 -5.053,4.1464 -5.41894,3.78052 -0.36593,-0.3659 0,-2.50795 0.80749,-4.76026 1.58771,-4.41458 0.92775,-7.0955 -1.74677,-7.0955 -0.84703,0 -3.54964,1.69424 -6.00576,3.76501 -2.4562,2.07074 -4.76253,3.76498 -5.1253,3.76498 -0.36278,0 -0.37468,-2.01194 -0.0264,-4.47094 0.34824,-2.45897 0.751,-5.7416 0.895,-7.29466 0.14399,-1.55307 0.58328,-4.20032 0.97611,-5.88281 0.56581,-2.42308 0.41669,-3.05907 -0.71704,-3.05907 -0.78723,0 -1.69315,0.42357 -2.01314,0.94125 -0.57086,0.92357 -4.23626,1.36091 -4.23626,0.50549 0,-0.23968 0.84725,-2.58496 1.88278,-5.21173 1.03553,-2.62675 1.88278,-5.98897 1.88278,-7.47157 0,-6.00008 19.02962,-26.11471 33.41933,-35.32488 4.65987,-2.98262 11.01425,-7.8446 14.12083,-10.80446 6.21168,-5.91835 10.4208,-8.79185 27.40573,-18.70929 13.56798,-7.92232 16.35728,-10.16134 21.70212,-17.42071 4.87324,-6.6188 6.82243,-12.10812 5.05541,-14.23691 -0.65341,-0.78725 -1.56369,-1.19925 -2.02279,-0.91555 -1.13539,0.70158 -1.06376,-0.26605 0.60733,-8.20904 1.67218,-7.94822 1.15788,-11.58049 -1.9258,-13.60072 -3.47524,-2.27671 -8.00053,-0.47047 -13.86297,5.53328 -5.98226,6.12648 -11.49293,9.1512 -16.67254,9.1512 -3.43689,0 -4.10333,0.42066 -7.08234,4.47092 -1.80874,2.45902 -5.73132,9.38777 -8.71702,15.39726 l -5.42852,10.92632 -6.58971,0.66756 c -3.62436,0.36718 -8.54233,1.28856 -10.92886,2.04753 -5.76869,1.83455 -11.80887,7.07849 -12.64249,10.97591 -2.27499,10.63561 -12.50812,29.41766 -18.45718,33.87641 -4.83324,3.62244 -6.89737,3.92651 -11.00107,1.62044 -3.54671,-1.99303 -3.76247,-2.00298 -11.608994,-0.53288 -11.578188,2.16922 -18.729281,1.99544 -21.944692,-0.53343 -2.479244,-1.94983 -2.554931,-2.26119 -1.887448,-7.7653 2.007043,-16.55153 -1.232165,-39.11542 -10.224844,-71.22582 -7.457235,-26.62778 -8.664322,-37.65083 -6.129575,-55.97326 1.241354,-8.97254 0.232862,-11.86106 -5.606313,-16.0577 -7.443227,-5.34951 -12.182331,-15.46705 -11.185739,-23.8806 1.363133,-11.50768 7.628569,-12.46507 18.012922,-2.75246 5.576715,5.2159 5.984223,5.43113 6.517425,3.44183 0.312768,-1.16711 0.576885,-3.3927 0.586825,-4.94577 0.03163,-4.96291 1.842638,-9.61304 4.911643,-12.61311 2.460115,-2.40488 3.743342,-2.91748 7.3033,-2.91748 4.621693,0 6.942934,1.18325 12.341915,6.29133 4.185121,3.95952 5.609781,3.52028 9.265681,-2.85673 1.528214,-2.66556 4.326184,-6.32895 6.217844,-8.14087 1.89159,-1.81189 4.51769,-5.40504 5.83579,-7.98476 1.31809,-2.57974 4.28693,-7.02716 6.59755,-9.88312 7.12979,-8.81276 23.18974,-24.89965 27.5989,-27.64525 35.47012,-22.0871 46.09848,-28.32103 51.06338,-29.9507 7.80554,-2.56204 14.63747,-6.1036 27.134,-14.06592 5.7775,-3.68115 13.72944,-8.15793 17.67116,-9.9484 3.94164,-1.79045 9.37269,-4.26995 12.06898,-5.50997 4.45315,-2.04804 16.28574,-5.32948 17.95036,-4.97803 0.37512,0.0792 1.87463,-0.34795 3.33221,-0.94924 3.25487,-1.34274 4.41029,-1.38046 4.41029,-0.14403 0,0.62167 0.56845,0.63659 1.64742,0.0432 2.15541,-1.18538 12.53337,-2.79216 11.95121,-1.85035 -0.65866,1.06554 6.52466,0.54996 7.29412,-0.52354 0.36163,-0.50444 7.71208,-1.03801 16.47431,-1.19589 13.35207,-0.24056 18.53965,-0.79974 33.23714,-3.58273 9.57859,-1.81372 21.25258,-4.55818 25.94214,-6.09879 8.85146,-2.90793 12.23723,-3.4688 11.24447,-1.86272 -0.73729,1.19283 2.16866,0.10493 10.03996,-3.75875 4.11132,-2.01805 5.23142,-2.33317 3.60845,-1.01521 -3.42724,2.78316 -0.7836,2.37566 5.64835,-0.87069 6.01961,-3.03824 7.0245,-3.34739 6.11903,-1.8825 -0.92964,1.50402 1.52873,1.11016 9.0137,-1.44405 11.14348,-3.80271 20.47467,-5.86534 29.58326,-6.53932 4.65988,-0.3448 12.70877,-1.29595 17.88639,-2.11367 37.34726,-5.89834 82.35666,4.52695 121.76872,28.20466 15.22513,9.14681 38.50299,27.70702 45.7986,36.51671 2.07105,2.50086 8.21365,8.32283 13.65013,12.93773 15.86031,13.46328 17.44019,15.53146 26.06318,34.11828 4.20943,9.07352 9.18622,20.90003 11.05957,26.28114 7.74359,22.24344 10.91833,53.26358 6.65188,64.99457 -1.54185,4.23937 -1.88624,7.56324 -1.90185,18.35437 -0.0177,11.21342 -0.3904,14.58039 -2.5108,22.58998 -1.37044,5.17687 -3.78957,15.9777 -5.37585,24.00185 -3.57871,18.10351 -6.45265,28.28588 -8.44902,29.93534 -0.84243,0.69602 -0.99213,0.99112 -0.33272,0.65577 1.27261,-0.64713 0.92896,4.00239 -0.79687,10.78216 -0.45532,1.78896 -0.47552,3.4832 -0.0444,3.76498 1.64036,1.07303 4.79983,26.49343 4.81217,38.7177 0.009,9.4393 2.07866,18.39233 7.05267,30.51728 8.40275,20.48308 9.21867,24.55019 6.2405,31.1061 -2.11482,4.65532 -6.29511,8.03848 -17.9919,14.56104 -4.9188,2.74294 -10.42594,6.13098 -12.23808,7.52909 -4.48439,3.45972 -18.51907,8.89863 -28.24168,10.94463 -12.07003,2.54 -41.78156,2.1436 -43.91115,-0.5857 -0.70325,-0.9012 -2.50287,-1.3151 -5.17764,-1.1908 -4.61716,0.2144 -9.93804,-2.12193 -10.76504,-4.7271 -1.05225,-3.31484 0.80018,-7.63532 5.12636,-11.95634 7.4051,-7.39626 17.44793,-10.91081 30.4867,-10.66894 4.81073,0.0892 6.35439,-0.1955 6.35439,-1.17197 0,-3.02736 -2.77176,-6.96562 -9.25071,-13.14398 -5.56828,-5.30999 -7.24734,-7.59346 -8.651,-11.76561 -1.27311,-3.78412 -1.91237,-4.73373 -2.37597,-3.52969 -0.92424,2.39989 -1.92977,2.02739 -3.27176,-1.21203 -1.50034,-3.62154 -2.9525,-3.15747 -4.48116,1.43205 -0.66048,1.98318 -2.61592,5.17175 -4.34546,7.08581 -1.8671,2.06637 -4.57529,7.17216 -6.66653,12.5686 -1.93717,4.99872 -4.1001,9.41198 -4.80658,9.8073 -0.70643,0.39524 -2.98654,7.20139 -5.06679,15.12458 -2.08025,7.92329 -4.61303,15.46192 -5.62837,16.75252 -1.01542,1.2906 -3.73469,3.7883 -6.0429,5.5506 -2.3082,1.7622 -4.34139,3.6233 -4.51807,4.1358 -0.17659,0.5125 -5.40478,1.3891 -11.61803,1.9481 -14.05479,1.2643 -38.38526,5.205 -41.09745,6.6562 -1.42677,0.7635 -8.0497,0.9565 -22.35671,0.6515 -17.79458,-0.3795 -20.95886,-0.6804 -25.37736,-2.414 -5.88279,-2.3081 -8.60219,-4.4999 -8.60219,-6.9332 0,-1.1625 -0.68564,-1.7367 -2.07385,-1.7367 -1.8873,0 -1.75852,-0.3228 1.43121,-3.5889 3.54662,-3.6316 3.78837,-5.6244 0.46662,-3.8469 -3.60558,1.9294 -3.66937,0.2399 -0.13752,-3.6456 4.50112,-4.95207 10.92426,-6.80235 23.61389,-6.80235 13.51963,0 22.35371,-3.47711 27.01909,-10.63482 2.72355,-4.17847 3.21449,-12.58714 1.79721,-30.78014 -2.4135,-30.98087 -2.616,-42.94966 -0.85207,-50.35683 0.863,-3.62381 1.99778,-13.36575 2.52166,-21.64875 0.78766,-12.45239 1.43174,-16.51395 3.71983,-23.45743 3.73763,-11.34214 3.41288,-12.11214 -4.76801,-11.30614 -5.22427,0.51472 -6.93089,0.32486 -9.21683,-1.02526 -2.33802,-1.38092 -3.31888,-1.47794 -5.88804,-0.58245 -4.17699,1.45589 -11.51258,1.32843 -18.33465,-0.31859 -3.10657,-0.75 -7.42455,-1.37872 -9.59548,-1.39717 -2.17084,-0.0177 -5.34805,-0.83266 -7.06041,-1.8094 -1.71228,-0.97673 -5.65504,-1.99482 -8.76162,-2.26239 -3.10657,-0.26758 -7.70787,-1.37971 -10.22513,-2.47137 -3.71474,-1.61101 -4.47267,-1.71357 -4.02398,-0.54446 0.93885,2.44612 7.01201,27.99149 7.69613,32.37195 0.35563,2.27687 1.23413,5.54586 1.95238,7.2644 0.80499,1.92648 1.31364,6.65569 1.32637,12.33218 0.0155,6.96073 0.45157,10.15601 1.78629,13.09496 1.74519,3.84264 1.74347,3.90988 -0.1512,5.80428 -1.26952,1.2694 -2.07595,3.61205 -2.38787,6.93676 -0.25909,2.76104 -0.87987,5.28419 -1.37949,5.60684 -0.49969,0.32273 -1.29903,4.13481 -1.77629,8.47127 -1.64555,14.95042 -2.56623,19.82278 -4.05693,21.46973 -1.35892,1.50141 -1.36154,1.97257 -0.0287,5.16227 1.73336,4.14774 1.34581,5.75916 -2.54514,10.58392 -1.60224,1.9868 -3.69876,5.35646 -4.65882,7.48829 -0.96006,2.13173 -2.45462,4.46137 -3.32116,5.17687 -0.86651,0.7155 -3.34464,4.05408 -5.50674,7.41899 -2.16219,3.365 -4.63533,6.69943 -5.49584,7.40998 -0.86049,0.71044 -1.56458,1.82594 -1.56458,2.47886 0,0.65294 -1.69479,2.71803 -3.76624,4.5892 -2.07135,1.871 -3.7157,3.7205 -3.65403,4.1098 0.34418,2.1734 -0.25643,3.9723 -1.25768,3.7669 -0.75184,-0.1542 -1.05437,0.7919 -0.87844,2.7472 0.23723,2.6368 -0.20263,3.2547 -3.79552,5.3317 -6.87743,3.9757 -13.64579,5.3732 -32.77617,6.7671 -22.67694,1.6523 -21.1213,1.6748 -27.10734,-0.3924 z"
       id="path6591"
       inkscape:connector-curvature="0" />
  </g>
</svg>
